<mxfile host="app.diagrams.net" modified="2023-12-05T10:32:09.064Z" agent="Mozilla/5.0 (Macintosh; Intel Mac OS X 10.15; rv:120.0) Gecko/20100101 Firefox/120.0" version="21.3.6" etag="Rxn1Q251Y-kALR3XOivX" type="github">
  <diagram name="Page-1" id="mxaloFAEga_4jvVSn4__">
    <mxGraphModel>
      <root>
        <mxCell id="0" />
        <mxCell id="1" parent="0" />
      </root>
    </mxGraphModel>
  </diagram>
</mxfile>
